2.5Hzhigh3min_grf.mot
version=1
nRows=10
nColumns 19
inDegrees=yes
endheader
time	1_ground_force_vx	1_ground_force_vy	1_ground_force_vz	1_ground_force_px	1_ground_force_py	1_ground_force_pz	1_ground_torque_x	1_ground_torque_y	1_ground_torque_z	2_ground_force_vx	2_ground_force_vy	2_ground_force_vz	2_ground_force_px	2_ground_force_py	2_ground_force_pz	2_ground_torque_x	2_ground_torque_y	2_ground_torque_z
            3.751500	            0.185856	            1.978043	            1.154445	           -0.233013	            0.005581	           -0.255695	           -0.275888	            0.111799	           -0.179068	            0.513965	            0.191867	           -1.642046	           -0.232311	            0.006130	           -0.833667	           -0.150425	            0.018968	           -0.169520
            3.752000	            0.460393	            2.339414	            0.971885	           -0.233013	            0.005581	           -0.255695	           -0.324496	            0.130235	           -0.129557	            0.652520	            0.744819	           -1.640134	           -0.232311	            0.006130	           -0.833667	           -0.206690	            0.008841	           -0.037579
            3.752500	            0.323334	            2.879201	            1.203825	           -0.233013	            0.005581	           -0.255695	           -0.259381	           -0.008700	           -0.079803	            0.793735	            0.561179	           -1.640851	           -0.232311	            0.006130	           -0.833667	           -0.187741	           -0.047471	           -0.132040
            3.753000	            0.277884	            1.977471	            1.291785	           -0.233013	            0.005581	           -0.255695	           -0.187520	           -0.092056	           -0.044666	            0.327915	           -0.177274	           -1.596352	           -0.232311	            0.006130	           -0.833667	           -0.093867	           -0.019177	           -0.018878
            3.753500	            0.141233	            2.156137	            1.659747	           -0.233013	            0.005581	           -0.255695	           -0.353423	           -0.092219	           -0.031327	            0.376738	           -0.729382	           -1.645271	           -0.232311	            0.006130	           -0.833667	           -0.206637	           -0.019114	           -0.150781
            3.754000	            0.277623	            2.158129	            1.200847	           -0.233013	            0.005581	           -0.255695	           -0.296600	           -0.045460	           -0.138192	            0.417647	            0.927787	           -1.545521	           -0.232311	            0.006130	           -0.833667	           -0.281856	            0.008771	           -0.094097
            3.754500	            0.507066	            2.157781	            1.291990	           -0.233013	            0.005581	           -0.255695	           -0.319249	            0.157918	           -0.108692	            0.513341	            0.375681	           -1.547532	           -0.232311	            0.006130	           -0.833667	           -0.356971	           -0.000885	           -0.112949
            3.755000	            0.231274	            3.060039	            1.067257	           -0.233013	            0.005581	           -0.255695	           -0.309976	            0.092921	           -0.083158	            0.746200	            0.745325	           -1.687102	           -0.232311	            0.006130	           -0.833667	           -0.263062	            0.008772	           -0.075255
            3.755500	            0.369147	            1.798009	            1.107361	           -0.233013	            0.005581	           -0.255695	           -0.292332	            0.083745	           -0.077332	            0.370674	            0.928622	           -1.827070	           -0.232311	            0.006130	           -0.833667	           -0.187972	            0.027814	           -0.037519
            3.756000	            0.094512	            1.977435	            1.292241	           -0.233013	            0.005581	           -0.255695	           -0.412813	           -0.045967	           -0.051728	            0.560191	            0.375850	           -1.547552	           -0.232311	            0.006130	           -0.833667	           -0.206502	           -0.038557	           -0.000047
